<svg xmlns="http://www.w3.org/2000/svg" version="1.1" viewBox="139.75 167.59 144.65 144.86">
<path d="M0 0 C1.05989639 -0.00525696 2.11979279 -0.01051392 3.21180725 -0.01593018 C6.68554799 -0.02904207 10.15882365 -0.02042381 13.63256836 -0.01025391 C16.06294339 -0.01227701 18.49331783 -0.01519043 20.9236908 -0.01895142 C26.00485034 -0.02336272 31.08585116 -0.01698148 36.16699219 -0.00292969 C42.66552125 0.01417037 49.16367877 0.00430788 55.66219425 -0.01364708 C60.67661823 -0.02450927 65.69095472 -0.02102751 70.70538139 -0.0132637 C73.10106895 -0.01126892 75.49676456 -0.0136955 77.8924427 -0.02070236 C81.24491422 -0.0283578 84.59679127 -0.01665517 87.94921875 0 C88.92973206 -0.00607269 89.91024536 -0.01214539 90.92047119 -0.0184021 C97.70275196 0.04372668 104.55420776 0.72463189 110.03100586 5.07177734 C110.68262695 5.93996094 110.68262695 5.93996094 111.34741211 6.82568359 C111.79987305 7.40189453 112.25233398 7.97810547 112.71850586 8.57177734 C115.09673128 12.19759643 116.15984784 14.8096428 116.17060852 19.1879425 C116.17769333 20.15095276 116.18477814 21.11396301 116.19207764 22.1061554 C116.18960022 23.15611191 116.1871228 24.20606842 116.18457031 25.2878418 C116.18968124 26.39884247 116.19479218 27.50984314 116.20005798 28.6545105 C116.21397479 32.33271653 116.21299537 36.01073559 116.21069336 39.68896484 C116.2145796 42.24480764 116.21891412 44.80064978 116.22367859 47.35649109 C116.23114565 52.71725828 116.23098451 58.07795675 116.22558594 63.4387207 C116.2195518 69.62467922 116.23184338 75.81040995 116.25315601 81.99632961 C116.27293418 87.95718696 116.27594102 93.9179741 116.27242088 99.8788662 C116.27293409 102.41018394 116.27817177 104.94150532 116.2882328 107.47280312 C116.30058347 111.01549374 116.29381273 114.55765943 116.28222656 118.1003418 C116.2898703 119.14422562 116.29751404 120.18810944 116.3053894 121.2636261 C116.25304218 128.5136233 115.38857235 133.44058763 110.59741211 139.13818359 C104.99410101 143.82932777 100.50417641 144.82555871 93.44897461 144.68115234 C92.65840668 144.6769075 91.86783875 144.67266266 91.05331421 144.66828918 C88.54682271 144.6515966 86.0411575 144.61396342 83.53491211 144.57568359 C81.82789253 144.56062451 80.12086026 144.54693825 78.41381836 144.53466797 C74.24553486 144.50172416 70.07786322 144.45000852 65.90991211 144.38818359 C65.78438965 143.70111328 65.65886719 143.01404297 65.52954102 142.30615234 C65.3585791 141.40509766 65.18761719 140.50404297 65.01147461 139.57568359 C64.84470215 138.68236328 64.67792969 137.78904297 64.50610352 136.86865234 C63.81017664 133.97323177 62.5898492 131.83172846 60.90991211 129.38818359 C60.90991211 128.72818359 60.90991211 128.06818359 60.90991211 127.38818359 C60.24991211 127.38818359 59.58991211 127.38818359 58.90991211 127.38818359 C58.35303711 126.79005859 57.79616211 126.19193359 57.22241211 125.57568359 C53.15565612 121.72875226 48.96819783 120.22547288 43.47241211 119.95068359 C37.9327908 120.1677386 33.44501092 122.03967835 29.37084961 125.81396484 C25.49715461 130.19735656 24.08133148 134.47829027 22.85913086 140.05615234 C22.6808374 140.86721436 22.50254395 141.67827637 22.31884766 142.51391602 C22.18389893 143.13242432 22.0489502 143.75093262 21.90991211 144.38818359 C16.92950147 144.48766936 11.94967959 144.55994046 6.96850586 144.60791016 C5.276997 144.62792419 3.58555644 144.65514433 1.89428711 144.68994141 C-0.54859343 144.73891425 -2.990553 144.76125393 -5.43383789 144.77880859 C-6.55308655 144.80977631 -6.55308655 144.80977631 -7.69494629 144.84136963 C-13.85061046 144.84395214 -18.9803329 143.11978404 -23.65759277 139.0112915 C-28.64016894 133.56277809 -28.23842753 127.36380025 -28.18774414 120.36474609 C-28.18632919 119.61857025 -28.18491425 118.87239441 -28.18345642 118.10360718 C-28.17789663 115.74009041 -28.16535178 113.37667132 -28.15258789 111.01318359 C-28.14756769 109.40250789 -28.14300569 107.79183068 -28.13891602 106.18115234 C-28.1279404 102.25012561 -28.11070385 98.31917111 -28.09008789 94.38818359 C-27.42477051 94.27643799 -26.75945312 94.16469238 -26.07397461 94.04956055 C-17.85678587 92.56022317 -12.33518935 89.87666766 -6.59008789 83.70068359 C-3.82933235 79.44451881 -3.96819115 75.59406149 -4.02758789 70.70068359 C-4.03209961 69.99878906 -4.03661133 69.29689453 -4.04125977 68.57373047 C-4.05301862 66.84517821 -4.07095336 65.11666994 -4.09008789 63.38818359 C-4.75008789 63.38818359 -5.41008789 63.38818359 -6.09008789 63.38818359 C-6.09008789 62.39818359 -6.09008789 61.40818359 -6.09008789 60.38818359 C-6.75008789 60.38818359 -7.41008789 60.38818359 -8.09008789 60.38818359 C-8.09008789 59.72818359 -8.09008789 59.06818359 -8.09008789 58.38818359 C-8.75008789 58.38818359 -9.41008789 58.38818359 -10.09008789 58.38818359 C-10.09008789 57.72818359 -10.09008789 57.06818359 -10.09008789 56.38818359 C-11.20383789 55.95505859 -11.20383789 55.95505859 -12.34008789 55.51318359 C-15.09008789 54.38818359 -15.09008789 54.38818359 -16.90258789 53.32568359 C-19.13255672 52.36998266 -20.87985694 52.09873481 -23.27758789 51.82568359 C-27.09008789 51.38818359 -27.09008789 51.38818359 -28.09008789 50.38818359 C-28.20349166 47.93732792 -28.25426574 45.51575264 -28.25805664 43.06396484 C-28.26138504 42.32494431 -28.26471344 41.58592377 -28.2681427 40.82450867 C-28.27321733 39.25500105 -28.27555086 37.6854826 -28.27539062 36.1159668 C-28.27756304 33.72800504 -28.29567329 31.34051577 -28.31469727 28.95263672 C-28.317634 27.42724767 -28.31961692 25.90185643 -28.32055664 24.37646484 C-28.32774216 23.66686111 -28.33492767 22.95725739 -28.34233093 22.22615051 C-28.31312923 15.80019912 -26.8037734 10.64923807 -23.09008789 5.38818359 C-22.43008789 5.38818359 -21.77008789 5.38818359 -21.09008789 5.38818359 C-21.09008789 4.72818359 -21.09008789 4.06818359 -21.09008789 3.38818359 C-13.92805297 0.82793189 -7.57886178 -0.04703589 0 0 Z M-9.09008789 19.38818359 C-9.09008789 24.99818359 -9.09008789 30.60818359 -9.09008789 36.38818359 C-4.56380241 40.33200989 -4.56380241 40.33200989 -0.99243164 41.91552734 C5.62837668 45.27494153 10.17396837 52.19352399 12.96069336 58.92724609 C15.56927378 68.43836647 15.59136517 81.48073403 11.19897461 90.40771484 C9.39552591 93.17846785 7.38405363 95.64253292 5.08178711 98.01318359 C3.69369476 99.34077343 3.69369476 99.34077343 3.90991211 101.38818359 C3.24991211 101.38818359 2.58991211 101.38818359 1.90991211 101.38818359 C1.90991211 102.04818359 1.90991211 102.70818359 1.90991211 103.38818359 C0.85803711 103.79037109 0.85803711 103.79037109 -0.21508789 104.20068359 C-3.23843826 105.44945874 -6.16432826 106.92530378 -9.09008789 108.38818359 C-9.09008789 113.99818359 -9.09008789 119.60818359 -9.09008789 125.38818359 C-0.98204736 126.09842757 -0.98204736 126.09842757 6.90991211 125.38818359 C10.02128232 122.51741143 11.28112301 119.23804875 12.90991211 115.38818359 C19.81933652 107.20597048 29.32213572 103.01597085 39.78491211 101.57568359 C48.08824712 100.94292556 55.43846637 102.96377096 62.90991211 106.38818359 C63.89991211 106.38818359 64.88991211 106.38818359 65.90991211 106.38818359 C65.90991211 107.04818359 65.90991211 107.70818359 65.90991211 108.38818359 C66.89991211 108.38818359 67.88991211 108.38818359 68.90991211 108.38818359 C68.90991211 109.04818359 68.90991211 109.70818359 68.90991211 110.38818359 C70.6193124 111.99046742 72.44292739 113.40113102 74.28100586 114.85302734 C75.90991211 116.38818359 75.90991211 116.38818359 76.90991211 119.38818359 C77.56991211 119.38818359 78.22991211 119.38818359 78.90991211 119.38818359 C79.12647461 120.59474609 79.12647461 120.59474609 79.34741211 121.82568359 C79.6512646 124.30922065 79.6512646 124.30922065 80.90991211 125.38818359 C86.18991211 125.38818359 91.46991211 125.38818359 96.90991211 125.38818359 C96.90991211 90.40818359 96.90991211 55.42818359 96.90991211 19.38818359 C61.92991211 19.38818359 26.94991211 19.38818359 -9.09008789 19.38818359 Z " fill="#1B1B1B" transform="translate(168.090087890625,167.61181640625)"/>
</svg>